<?xml version="1.0" encoding="utf-8"?>
<!-- Generator: Adobe Illustrator 24.0.0, SVG Export Plug-In . SVG Version: 6.00 Build 0)  -->
<svg version="1.1" id="Capa_1" xmlns="http://www.w3.org/2000/svg" xmlns:xlink="http://www.w3.org/1999/xlink" x="0px" y="0px"
	 viewBox="0 0 3213.7 691.9" style="enable-background:new 0 0 3213.7 691.9;" xml:space="preserve">
<style type="text/css">
	.st0{fill:#020202;stroke:#000000;stroke-width:3;stroke-linejoin:round;}
</style>
<g>
	<path class="st0" d="M3193.1,440.5l-0.5-3.7l-0.9-3.4l-1.1-3l-1.3-2.7l-1.5-2.4l-1.7-2.1l-1.8-1.8l-1.8-1.5l-1.9-1.1l-1.9-0.8
		l-1.9-0.5l-1,3.2l-1.3,3.6l-1.7,4l-1.9,4.3l-2.2,4.5l-2.4,4.7l-2.7,4.8l-2.9,4.9l-3,4.8l-3.2,4.8l-3.3,4.6l-3.4,4.4l-2.3,2.7
		l-2.3,2.6l-2.4,2.4l-2.4,2.2l-2.4,2l-2.4,1.8l-2.4,1.6l-2.5,1.3l-2.5,1.1l-2.5,0.8l-2.5,0.5l-2.5,0.2h-1l-1-0.1l-0.9-0.1l-0.9-0.1
		l-0.9-0.2l-0.9-0.2l-0.9-0.3l-0.8-0.3l-0.9-0.4l-0.8-0.5l-0.8-0.5l-0.8-0.6l-2.2-1.8l-1.9-2.5l-1.6-3l-1.3-3.6l-1.1-4.1l-0.9-4.5
		l-0.7-4.9l-0.6-5.2l-0.4-5.5l-0.3-5.7l-0.1-5.9l-0.1-6.1l0.1-6.5l0.1-6.5l0.2-6.5l0.3-6.4l0.3-6.3l0.3-6.1l0.4-5.8l0.4-5.5l0.4-5.1
		l0.3-4.7l0.3-4.2l0.2-3.6l0.3-5.4l0.4-5.4l0.3-5.4l0.4-5.3l0.4-5.3l0.3-5.2l0.3-5.2l0.3-5.2l0.2-5.1l0.2-5.1l0.1-5l0.1-5v-3.6
		l-0.1-3.6l-0.1-3.5l-0.2-3.5l-0.3-3.4l-0.3-3.4l-0.4-3.3l-0.5-3.3l-0.6-3.3l-0.6-3.2l-0.7-3.2l-0.8-3.2l-3.7-10.3l-4.6-9.2
		l-5.3-8.1l-6-7l-6.5-6l-6.9-5.1l-7.2-4.2l-7.4-3.3l-7.5-2.5l-7.5-1.7l-7.3-1l-7.1-0.3l-7.2,0.6l-6.8,1.7l-6.5,2.7l-6.1,3.6
		l-5.7,4.4l-5.3,5.1l-4.9,5.8l-4.5,6.3l-4.2,6.7l-3.8,7.1l-3.4,7.3l-3,7.5l-3.2,8.2l-3.2,8.2l-3.2,8.3l-3.2,8.4l-3.2,8.5l-3.2,8.7
		l-3.2,9l-3.2,9.2l-3.1,9.6l-3,10l-3,10.5l-2.9,10.9l0.2-4.8l0.1-4.6l0.2-4.4l0.1-4.2l0.1-4.1l0.2-3.9l0.1-3.8l0.1-3.7l0.1-3.7v-3.6
		l0.1-7.2l-0.1-6.1l-0.1-6.1l-0.3-6.2l-0.4-6.1l-0.6-6.1l-0.7-6.1l-0.9-6l-1.1-6l-1.4-5.9l-1.6-5.8l-1.9-5.8l-2.2-5.6l-3-6.3
		l-3.7-6.1l-4.3-5.8l-4.9-5.5l-5.4-5.1l-5.8-4.6l-6.2-4l-6.5-3.5l-6.8-2.8l-7-2.1l-7.2-1.3l-7.2-0.4l-9.2,0.8l-8.2,2.1l-7.3,3.3
		l-6.5,4.4l-5.7,5.3l-5.1,6l-4.5,6.6l-4,7.1l-3.6,7.4l-3.2,7.5l-3,7.5l-2.8,7.4l-4.4,11.6l-4.2,11.8l-4,11.9l-3.7,11.7l-3.4,11.4
		l-3.1,10.9l-2.8,10.1l-2.5,9.2l-2,8l-1.6,6.6l-1.2,5l-0.7,3.3l1.1-17.7l0.9-15l0.7-12.6l0.6-10.4l0.4-8.4l0.3-6.8l0.3-5.3l0.2-4.1
		l0.1-3.1l0.1-2.3v-3.3l-0.1-6.1l-0.2-5.8l-0.3-5.5l-0.4-5.2l-0.5-4.9l-0.6-4.6l-0.7-4.2l-0.8-3.9l-0.8-3.5l-0.9-3.1l-0.9-2.8
		l-1-2.3l-2.6-4.8l-3.1-4.3l-3.6-3.9l-3.9-3.5l-4.3-3.1l-4.5-2.7l-4.8-2.2l-4.9-1.9l-5-1.5l-5-1l-4.9-0.6l-4.9-0.2h-2.3l-1.1,0.1
		l-1.2,0.1l-1.1,0.1l-1.1,0.2l-1.1,0.2l-1.1,0.2l-1.1,0.2l-1.1,0.3l-1,0.3l-1,0.3l0.6,3.8l0.5,3.7l0.5,3.7l0.4,3.6l0.4,3.6l0.3,3.6
		l0.2,3.5l0.2,3.5l0.1,3.5l0.1,3.5l0.1,3.5v3.5l-0.1,6.9l-0.2,6.9l-0.3,7l-0.4,7l-0.5,7.1l-0.5,7.3l-0.6,7.5l-0.6,7.7l-0.6,7.9
		l-0.6,8.2l-0.5,8.5l-0.5,8.9l-0.5,7.2l-0.5,7.6l-0.4,7.8l-0.4,8l-0.4,8.1l-0.3,8.2l-0.3,8.3l-0.2,8.2l-0.2,8.1l-0.1,8l-0.1,7.8v7.6
		v3.8v3.7l0.1,3.6l0.1,3.5l0.1,3.3l0.1,3.2l0,0l-5.1,6.5l-5.7,6.3l-5.9,5.3l-6,4.1l-6,2.6l-6,0.9h-0.8l-0.8-0.1l-0.8-0.1l-0.8-0.1
		l-0.8-0.2l-0.7-0.2l-0.8-0.3l-0.8-0.3l-0.8-0.3l-1.5-0.6l-0.8-0.3l-2.3-1.6l-2.1-2.3l-1.8-3l-1.6-3.7l-1.4-4.3l-1.1-4.9l-0.9-5.5
		l-0.8-6l-0.6-6.4l-0.4-6.9l-0.2-7.2l-0.1-7.6l0.1-9.8l0.3-10.2l0.4-10.6l0.6-10.8l0.7-11l0.8-11.1l0.9-11.1l0.9-11l1-10.8l1-10.5
		l1-10.1l1-9.7l0.5-4.9l0.4-4.7l0.4-4.5l0.4-4.3l0.4-4.1l0.3-3.8l0.3-3.6l0.3-3.3l0.2-2.9l0.1-2.6l0.1-2.2v-1.8l-0.9-7.2l-2.2-6.8
		l-3.4-6.5l-4.3-6.1l-5.1-5.6l-5.7-5.1l-6.1-4.5l-6.3-3.8l-6.4-3.1l-6.2-2.3l-6-1.4l-5.4-0.5l-1.8,0.1l-1.7,0.2l-1.5,0.4l-1.4,0.5
		l-1.3,0.6l-1.1,0.8l-1,0.9l-0.9,1l-0.7,1.2l-0.6,1.3l-0.4,1.5l-0.3,1.6l-0.1,2.4l-0.2,2.3l-0.2,2.2l-0.2,2.1l-0.2,2l-0.2,1.9
		l-0.2,1.9l-0.2,1.8l-0.3,1.8l-0.3,1.8l-0.3,1.8l-0.3,1.8l-5.2-6.8l-5.6-6.3l-6.1-5.8l-6.4-5.2l-6.8-4.6l-7.1-4.1l-7.3-3.4l-7.6-2.9
		l-7.8-2.2l-7.9-1.6l-8-1l-8.1-0.4l-3,0.1l-3,0.1l-3,0.2l-2.9,0.3l-3,0.4l-2.9,0.5l-2.9,0.6l-2.9,0.7l-2.9,0.8l-2.9,0.9l-2.8,1
		l-2.8,1.1l-13.1,6.6l-12,8.9l-10.8,10.8l-9.7,12.5l-8.5,14l-7.4,15.2l-6.2,16.1l-5.1,16.8l-4,17.3l-2.1,13.1l-1.1,0.4l-5.1,1.1
		l-5.2,0.4h-1h-0.5h-0.6h-0.6h-0.6h-0.6l-0.6-0.1l-0.6-0.1l-0.6-0.1l-0.5-0.1l-0.5-0.2l-7.5-2.2l-6.7-3.1l-5.9-3.9l-5.2-4.4
		l-4.5-4.7l-3.8-4.7l-3.1-4.6l-2.5-4.2l-1.9-3.7l-1.3-2.9l-0.8-1.9l-0.3-0.7l0.5-0.6l1.5-1.8l2.2-2.7l2.8-3.6l3.2-4.3l3.4-4.8
		l3.3-5.1l3.2-5.4l2.8-5.5l2.2-5.3l1.5-5.1l0.6-4.7l-0.6-6.5l-1.6-6.3l-2.5-6l-3.4-5.6l-4.1-5.2l-4.6-4.7l-5.1-4.2l-5.4-3.6
		l-5.6-2.9l-5.6-2.1l-5.6-1.3l-5.4-0.4h-1.3l-1.3,0.1l-1.3,0.2l-1.2,0.2l-1.2,0.3l-1.1,0.3l-1.1,0.4l-1.1,0.5l-1.1,0.6l-1.1,0.6
		l-1,0.7l-1,0.8l-2.4,2.1l-2.3,2.4l-2.2,2.7l-2.1,2.9l-2,3.1l-1.8,3.4l-1.8,3.6l-1.6,3.8l-1.6,4.1l-1.4,4.3l-1.3,4.5l-1.2,4.7
		l-0.5,2.2l-0.4,2.1l-0.4,2.1l-0.3,2.1l-0.3,2.1l-0.2,2l-0.2,2l-0.1,2l-0.1,1.9l-0.1,1.8l-0.1,1.8v2.8l0.1,1.2l0.1,1.2l0.1,1.2
		l0.1,1.2l0.3,2.5l0.1,1.2l0.2,1.2l0.1,1.2l0.2,1.2l0.1,1.1l-1.6,3.3l-1.7,3.5l-1.7,3.7l-1.7,3.9l-1.7,4.1l-1.7,4.2l-1.7,4.4
		l-1.7,4.5l-1.6,4.6l-1.6,4.8l-1.6,4.8l-1.5,4.9v-26.1v-6.9l-0.1-6.8l-0.3-6.8l-0.4-6.7l-0.6-6.6l-0.9-6.4l-1.1-6.3l-1.4-6.1
		l-1.8-5.9l-2.2-5.6l-2.6-5.4l-3-5.1l-2.8-4.2l-3-3.9l-3.2-3.7l-3.5-3.4l-3.7-3.1l-3.9-2.7l-4.1-2.3l-4.3-2l-4.4-1.6l-4.5-1.2
		l-4.6-0.7l-4.7-0.3h-1.1l-1.1,0.1l-1.2,0.1l-1.1,0.1l-1.1,0.1l-1.2,0.2l-1.1,0.2l-1.1,0.2l-1.2,0.3l-1.1,0.3l-1.1,0.3l-1.2,0.3
		l0.3,1.9l0.3,2l0.3,2.2l0.3,2.3l0.3,2.4l0.3,2.6l0.2,2.7l0.2,2.8l0.2,3l0.1,3.1l0.1,3.3v3.4v3.9v4l-0.1,4.2l-0.1,4.3l-0.1,4.5
		l-0.1,4.6l-0.2,4.7l-0.1,4.8l-0.1,5l-0.2,5l-0.1,5.1l-0.2,5.2l-0.1,6.6l-0.2,7l-0.2,7.3l-0.1,7.6l-0.1,7.7l-0.1,7.8l-0.1,7.8
		l-0.1,7.8l-0.1,7.7l-0.1,7.5l-0.1,7.2v7l0.1,12l0.2,11.8l0.3,11.5l0.4,11.2l0.3,6l-1.4,1.4l-2.8,2.7l-2.9,2.7l-3,2.7l-3.1,2.7
		l-3.2,2.7l-2.8,2.3l-2.9,2.4l-3,2.4l-3,2.4l-3.1,2.4l-3.2,2.4l-3.2,2.4l-3.3,2.4l-3.3,2.5l-3.4,2.5l-3.4,2.5l-3.4,2.5l0.1-3.5
		l0.2-6.4l0.3-8.7l0.4-10.7l0.4-12.1l0.5-13.2l0.6-13.8l0.6-13.9l0.6-13.6l0.6-12.9l0.6-11.7l0.5-10l0.5-11.2l0.4-10.2l0.3-9.3
		l0.2-8.6l0.1-7.9l0.1-7.4l0.1-7l0.2-6.7l0.3-6.5l0.4-6.4l0.6-6.5l0.9-6.7v-1.1l-0.1-1.1l-0.1-1l-0.1-1l-0.2-1l-0.2-1l-0.2-1
		l-0.3-0.9l-0.3-0.9l-0.4-1l-0.4-1l-0.5-1l-2.9-4.2l-3.6-3.9l-4.1-3.6l-4.6-3.3l-5-3l-5.3-2.7l-5.5-2.3l-5.6-1.9l-5.6-1.5l-5.5-1.1
		l-5.3-0.7l-5-0.2h-1.8l-1.7,0.1l-1.6,0.2l-1.5,0.2l-1.4,0.3l-1.3,0.3l-1.2,0.4l-1,0.5l-0.8,0.5l-0.7,0.6l-0.5,0.7l-0.3,0.8
		l-0.2,1.7l-0.2,1.7l-0.2,1.8l-0.3,1.8l-0.3,1.8l-0.3,1.8l-0.4,1.8l-0.4,1.9l-0.4,1.9l-0.4,1.8l-0.4,1.8l-0.5,1.8l-4.4-7.2l-5-6.6
		l-5.5-5.9l-5.9-5.2l-6.2-4.6l-6.4-3.9l-6.5-3.3l-6.5-2.7l-6.5-2.1l-6.4-1.5l-6.1-0.9l-5.8-0.3l-9.9,0.5l-9.6,1.4l-9.3,2.3l-8.9,3.2
		l-8.6,4l-8.2,4.8l-7.8,5.4l-7.4,6.2l-7,6.7l-6.6,7.3l-6.1,7.9l-5.7,8.3l-4.9,8.6l-4.5,8.9l-4.1,9.3l-3.7,9.6l-3.3,9.8l-2.9,10
		l-2.5,10.3l-2,10.5l-1.6,10.6l-1.1,10.7l-0.7,10.8l-0.2,10.9l0.1,6.1l0.3,6.1l0.4,6.1l0.6,6.1l0.7,6l0.8,6l1,5.9l1.1,5.9l1.3,5.9
		l1.3,5.8l1.5,5.7l1.6,5.6l1.2,3.5l-1.4,2.6l-4.6,7.7l-5,7.4l-5.4,7l-5.7,6.3l-5.9,5.3l-6,4.1l-6,2.6l-6,0.9h-0.8l-0.8-0.1l-0.8-0.1
		l-0.8-0.1l-0.8-0.2l-0.7-0.2l-0.7-0.3l-0.8-0.3l-0.8-0.3l-1.6-0.6l-0.8-0.3l-2.3-1.6l-2.1-2.3l-1.8-3l-1.6-3.7l-1.3-4.3l-1.1-4.9
		l-0.9-5.5l-0.7-6l-0.5-6.4l-0.4-6.9l-0.2-7.2l-0.1-7.6l0.1-9.8l0.3-10.2l0.4-10.6l0.5-10.8l0.7-11l0.8-11.1l0.9-11.1l0.9-11l1-10.8
		l1-10.5l1-10.1l1-9.7l0.5-4.9l0.4-4.7l0.4-4.5l0.4-4.3l0.4-4.1l0.3-3.8l0.3-3.6l0.2-3.3l0.2-2.9l0.1-2.6l0.1-2.2l0.1-1.8l-0.9-7.2
		l-2.2-6.8l-3.4-6.5l-4.3-6.1l-5.1-5.6l-5.7-5.1l-6.1-4.5l-6.3-3.8l-6.4-3.1l-6.2-2.3l-5.9-1.4l-5.4-0.5l-1.8,0.1l-1.7,0.2l-1.5,0.4
		l-1.4,0.5l-1.3,0.6l-1.1,0.8l-1,0.9l-0.9,1l-0.7,1.2l-0.6,1.3l-0.4,1.5l-0.3,1.6l-0.2,2.4l-0.2,2.3l-0.2,2.2l-0.2,2.1l-0.2,2
		l-0.2,1.9l-0.2,1.9l-0.2,1.8l-0.3,1.8l-0.3,1.8l-0.3,1.8l-0.3,1.8l-5.2-6.8l-5.6-6.3l-6-5.8l-6.4-5.2l-6.8-4.6l-7.1-4.1l-7.4-3.4
		l-7.6-2.9l-7.7-2.2l-7.9-1.6l-8-1l-8.1-0.4l-3,0.1l-3,0.1l-3,0.2l-3,0.3l-2.9,0.4l-2.9,0.5l-2.9,0.6l-2.9,0.7l-2.9,0.8l-2.9,0.9
		l-2.8,1l-2.8,1.1l-13.1,6.6l-11.9,8.9l-10.8,10.8l-9.6,12.5l-8.5,14l-7.4,15.2l-6.2,16.1l-5.1,16.8l-4,17.3l-2.8,17.5l-1.7,17.4
		l-0.6,17.1v7.3l0.6,10.5l1,10.4l1.4,10.2l1.8,10.1l2.2,9.8l2.5,9.5l2.2,7.1l0.1,0.5l-0.1-0.5l-4.6,8.1l-5.4,7.9l-6,7.2l-6.4,6.4
		l-6.7,5.5l-6.8,4.5l-6.9,3.3l-6.9,2.1l-6.7,0.7h-1.5l-1.5-0.1l-1.4-0.2l-1.4-0.2l-1.4-0.3l-1.3-0.4l-1.3-0.5l-1.3-0.5l-1.3-0.7
		l-1.2-0.7l-1.2-0.8l-1.2-0.9l-2.8-2.8l-2.6-3.7l-2.3-4.5l-2-5.3l-1.8-6.1l-1.5-6.8l-1.3-7.5l-1-8.2l-0.8-8.8l-0.6-9.4l-0.4-10
		l-0.1-10.5l0.1-9.6l0.2-9.9l0.3-10.2l0.5-10.5l0.6-10.9l0.7-11.2l0.9-11.5l1-11.8l1.1-12.1l1.2-12.4l1.3-12.7l1.4-13l0.7-3.3
		l0.6-3.3l0.6-3.4l0.6-3.4l0.6-3.4l0.5-3.4l0.5-3.4l0.5-3.4l0.4-3.4l0.4-3.3l0.4-3.3l0.4-3.3l3.8-0.2l3.7-0.2l3.6-0.3l3.6-0.3
		l3.4-0.3l3.4-0.3l3.2-0.4l3.1-0.4l3-0.4l2.9-0.4l2.7-0.5l2.6-0.5l5.3-1.1l4.7-1.2l4.2-1.4l3.6-1.5l3.1-1.7l2.6-1.8l2.2-2l1.7-2.1
		l1.3-2.2l0.9-2.4l0.5-2.5l0.2-2.6v-0.8l-0.1-0.9l-0.1-0.9l-0.1-0.9l-0.1-0.9l-0.2-0.9l-0.2-0.9l-0.2-0.9l-0.2-0.9l-0.3-0.9
		l-0.3-0.9l-0.3-0.9l-1.9,0.3l-2,0.3l-2.1,0.3l-2.3,0.2l-2.4,0.2l-2.5,0.2l-2.6,0.2l-2.7,0.1l-2.8,0.1l-2.9,0.1l-3,0.1h-5.7
		l-2.7-0.1l-2.7-0.1l-2.8-0.1l-2.8-0.1l-2.8-0.1l-2.9-0.1l-2.9-0.1l-3-0.1l-3-0.1l-3.1-0.1h-3.1l0.2-2.9l0.1-2.9l0.1-2.9l0.1-2.8
		l0.1-2.7l0.1-2.7v-2.7v-2.6v-2.6v-7.5v-4.3v-4.1l-0.1-3.8l-0.1-3.6l-0.1-3.3l-0.2-3.1l-0.2-2.8l-0.2-2.5l-0.2-2.3l-0.3-2l-0.3-1.7
		l-0.3-1.5l-2.9-10.5l-3.4-9.5l-3.9-8.5l-4.2-7.4l-4.6-6.5l-4.8-5.5l-5-4.6l-5.1-3.7l-5.1-2.8l-5.1-2l-5-1.2l-4.9-0.4l-1.6,0.1
		l-1.6,0.1l-1.6,0.2l-1.5,0.3l-1.5,0.4l-1.4,0.5l-1.4,0.5l-1.3,0.6l-1.3,0.7l-1.2,0.8l-1.1,0.9l-1,1l-1.5,5.1l-1.3,5.1l-1.1,5.1
		l-0.8,5.2l-0.6,5.3l-0.5,5.5l-0.3,5.8l-0.3,6l-0.1,6.4l-0.1,6.7v7.2v18v4.8v4.6v4.5l-0.1,4.3l-0.1,4.2l-0.1,4.2l-0.1,4.2l-0.1,4.2
		l-0.1,4.3l-0.2,4.4l-4.4,0.2l-4.3,0.2l-4.1,0.3l-4,0.3l-3.8,0.3l-3.7,0.4l-3.5,0.4l-3.3,0.4l-3.1,0.5l-2.9,0.5l-2.7,0.6l-2.4,0.7
		l-0.9,0.4l-0.8,0.5l-0.7,0.7l-0.6,0.8l-0.6,0.9l-0.5,1l-0.4,1l-0.3,1.1l-0.2,1.2l-0.2,1.2l-0.1,1.3v1.3l0.1,2l0.2,2l0.2,1.9
		l0.3,1.9l0.3,1.8l0.3,1.7l0.3,1.5l0.3,1.3l0.3,1.1l0.2,0.8l0.2,0.5l0.1,0.2h1.1l1.7,0.1l2.3,0.1l2.7,0.2l3.2,0.2l3.7,0.2l4.1,0.2
		l4.4,0.2l4.8,0.2l5.1,0.2l5.4,0.2l5.7,0.2l-0.2,2.2l-0.2,2.3l-0.2,2.4l-0.2,2.4l-0.2,2.4l-0.1,2.4l-0.1,2.4l-0.1,2.3l-0.1,2.3
		l-0.1,2.1v2v1.9l-0.6,13.1l-0.6,13.1l-0.6,12.9l-0.5,12.8l-0.5,12.6l-0.5,12.3l-0.4,12.1l-0.3,11.7l-0.3,11.4l-0.2,11l-0.1,10.6
		l-0.1,10.1l0.1,8.2l0.1,7.8l0.2,7.4l0.3,6.9l0.3,6.5l0.3,4.3l-2.3,3.8l-2.8,4.2l-3,4.1l-3.2,4l-3.5,3.9l-3.8,3.9l-4,3.7l-4.3,3.7
		l-4.6,3.6l-4.3,3.2l-4,2.9l-3.7,2.6l-3.6,2.4l-3.4,2.2l-3.3,2.1l-3.3,2l-3.3,2l-3.3,1.9l-3.4,2l-3.6,2.1l3.9-7.7l3.4-7.5l3-7.2
		l2.6-6.9l2.2-6.6l1.9-6.3l1.5-6l1.2-5.8l0.9-5.5l0.6-5.3l0.4-5l0.1-4.7l-0.4-11.8l-1.3-11.4l-2-11L1306,379l-3.2-10.4l-3.7-10.2
		l-4.2-10l-4.5-9.9l-4.7-9.8l-4.9-9.8l-5-9.8l-5-9.8l-0.3-0.6l-0.8-1.6l-1.3-2.5l-1.8-3.3l-2.1-4l-2.4-4.6l-2.7-5l-2.9-5.4l-3-5.6
		l-3.1-5.7l-3.1-5.7l-3-5.6l-0.8-1.5l-0.7-1.5l-0.6-1.5l-0.6-1.5l-0.5-1.5l-0.4-1.5l-0.4-1.5l-0.3-1.5l-0.2-1.5l-0.2-1.5l-0.1-1.5
		v-1.5l0.1-2.3l0.2-2.4l0.3-2.4l0.5-2.4l0.6-2.4l0.7-2.3l0.8-2.3l0.9-2.2l1-2.1l1.1-2l1.2-1.9l1.3-1.7l1.8-2l2.1-1.8l2.3-1.6
		l2.5-1.5l2.5-1.4l2.4-1.3l2.3-1.3l2.1-1.4l1.8-1.5l1.4-1.6l0.9-1.8l0.3-2l-0.2-1.3l-0.4-1.3l-0.6-1.3l-0.9-1.3l-1.1-1.2l-1.3-1.2
		l-1.5-1.1l-1.7-1.1l-1.9-1l-2-0.9l-2.1-0.8l-2.2-0.7l-3.6-0.9l-3.7-0.9l-3.7-0.8l-3.7-0.7l-3.7-0.6l-3.6-0.5l-3.4-0.5l-3.1-0.4
		l-2.8-0.3l-2.4-0.2l-2-0.1h-1.4l-7,0.2l-6.8,0.6l-6.6,1.1l-6.3,1.5l-6,2l-5.6,2.4l-5.2,2.9l-4.7,3.4l-4.2,3.8l-3.6,4.3l-3,4.8
		l-2.3,5.3l-0.5,1.5l-0.4,1.5l-0.4,1.5l-0.3,1.5l-0.3,1.5l-0.2,1.5l-0.2,1.6l-0.2,1.5l-0.1,1.6l-0.1,1.6l-0.1,1.6v1.6v2l0.1,2
		l0.1,2.1l0.2,2.1l0.2,2.1l0.3,2.1l0.3,2.1l0.4,2.1l0.4,2.1l0.4,2.1l0.5,2.1l0.5,2.2l-1.5,7.4l-1.7,7.5l-1.7,7.5l-1.8,7.5l-1.9,7.5
		l-2,7.5l-2.1,7.5l-2.1,7.5l-2.2,7.5l-0.4,1.4l-0.2-0.7l-1.2-3.1l-1.5-2.9l-1.7-2.6l-1.8-2.4l-1.9-2.1l-1.9-1.9l-1.9-1.6l-1.8-1.4
		l-1.7-1.1l-1.4,3l-1.5,3l-1.6,2.9l-1.7,2.9l-1.8,2.9l-2,2.9l-2.2,2.8l-2.3,2.8l-2.5,2.7l-2.7,2.7l-3,2.6l-3.2,2.5l-2.4,1.8
		l-2.5,1.7l-2.7,1.6l-2.9,1.6l-3,1.5l-3.2,1.4l-3.3,1.3l-3.5,1.3l-3.6,1.2l-3.8,1.2l-3.9,1.1l-4.1,1l-0.1-7.7l-0.3-7.5l-0.4-7.2
		l-0.6-7l-0.7-6.7l-0.8-6.3l-0.9-5.9l-1-5.5l-1.1-5l-1.1-4.5l-1.1-3.9l-1.2-3.3l-3.1-7.1l-3.4-6.8l-3.6-6.5l-3.9-6.2l-4.1-5.9
		l-4.3-5.6l-4.5-5.3l-4.7-5l-4.9-4.7l-5.1-4.4l-5.2-4.1l-5.4-3.8l-4.7-3l-4.8-2.8l-5-2.6l-5.1-2.3l-5.2-2.1l-5.2-1.8l-5.3-1.6
		l-5.3-1.3l-5.4-1l-5.4-0.8l-5.3-0.5l-5.3-0.1l-2.9,0.1l-2.9,0.2l-2.9,0.3l-2.8,0.4l-2.8,0.5l-2.7,0.6l-2.7,0.7l-2.7,0.8l-2.7,0.9
		l-2.7,0.9l-2.6,1l-2.6,1.1l0.9-10.5l0.8-10.3l0.7-10.1l0.6-9.9l0.6-9.6l0.5-9.4l0.4-9.1l0.3-8.8l0.2-8.5l0.2-8.2l0.1-7.8v-7.4
		l-0.5-10.5l-1.5-9.4l-2.3-8.4l-3.1-7.4l-3.8-6.4l-4.3-5.5l-4.8-4.5l-5.2-3.7l-5.5-2.8l-5.7-2l-5.8-1.2l-5.8-0.4l-1.8,0.1l-1.9,0.1
		l-1.8,0.2l-1.9,0.3l-1.8,0.3l-1.8,0.4l-1.7,0.5l-1.7,0.6l-1.6,0.6L842,26l-1.5,0.8l-1.4,0.8l-3.6,23.3l-3.7,24l-3.6,24.6l-3.5,25
		l-3.3,24.9l-0.1,0.5l-3,24.9l-0.1,0.7l-2.7,24.9l-0.1,0.7l-2.4,25l-0.1,0.6l-2,25v0.4l-1.5,25.1l-1,24.6l-0.3,24.1l0.1,14.2l0.4,14
		l0.7,13.7l0.9,13.3l1.3,12.8l1.6,12.3l2,11.8l2.4,11.2l2.8,10.5l2.3,7.1l-4.6,7.7l-5,7.4l-5.4,7l-5.7,6.3l-5.9,5.3l-6,4.1l-6,2.6
		l-6,0.9h-0.8l-0.8-0.1l-0.8-0.1l-0.8-0.2l-0.8-0.2l-0.7-0.2l-0.8-0.3l-0.8-0.3l-0.8-0.3l-0.8-0.3l-1.6-0.7l-2.3-1.6l-2.1-2.3
		l-1.8-3l-1.6-3.7l-1.4-4.3l-1.1-4.9l-0.9-5.5l-0.7-6l-0.6-6.4l-0.4-6.9l-0.2-7.2l-0.1-7.6l0.1-9.8l0.3-10.2l0.4-10.6l0.6-10.8
		l0.7-11l0.8-11.1l0.9-11.1l0.9-11l1-10.8l1-10.5l1-10.1l1-9.7l0.5-4.9l0.5-4.7l0.4-4.5l0.4-4.3l0.4-4.1l0.3-3.8l0.3-3.6l0.2-3.3
		l0.2-2.9l0.1-2.6l0.1-2.2v-1.9l-0.9-7.1l-2.2-6.8l-3.4-6.5l-4.3-6.1l-5.1-5.6l-5.7-5.1l-6.1-4.5l-6.3-3.8l-6.4-3.1l-6.2-2.3
		l-5.9-1.4l-5.4-0.5l-1.8,0.1l-1.6,0.2l-1.5,0.4l-1.4,0.5l-1.3,0.6l-1.1,0.8l-1,0.9l-0.9,1l-0.7,1.2l-0.6,1.3l-0.4,1.5l-0.3,1.6
		l-0.2,2.4l-0.2,2.3l-0.2,2.2l-0.2,2.1l-0.2,2l-0.2,1.9l-0.2,1.9l-0.2,1.8l-0.3,1.8l-0.3,1.8l-0.3,1.8l-0.3,1.8l-5.2-6.8l-5.6-6.3
		l-6.1-5.7l-6.4-5.2L664,209l-7.1-4.1l-7.3-3.4l-7.6-2.9l-7.7-2.2l-7.9-1.6l-8-1l-8.1-0.4l-3,0.1l-3,0.1l-3,0.2l-3,0.3l-3,0.4
		l-2.9,0.5l-2.9,0.6l-2.9,0.7l-2.9,0.8l-2.9,0.9l-2.8,1l-2.8,1.1l-13.1,6.6l-12,8.9l-10.8,10.8l-9.7,12.5l-8.5,14l-7.4,15.2
		l-6.2,16.1l-5.1,16.8l-3.9,17.3l-2.8,17.5l-1.7,17.4l-0.6,17.1v7.3l0.6,10.5l1,10.4l1.4,10.2l1.8,10.1l2.2,9.8l2.5,9.5l2.9,9.3
		l3.2,8.9l3.5,8.5l3.8,8.1l4,7.7l4.3,7.2l4.1,6l4.3,5.6l4.5,5.2l4.7,4.7l4.9,4.2l5,3.7l5.2,3.2l5.3,2.7l5.4,2.1l5.5,1.5l5.5,0.9
		l5.6,0.3h1.3l1.4-0.1l1.4-0.1l1.4-0.1l1.4-0.2l1.5-0.2l1.4-0.2l1.5-0.3l1.5-0.3l1.5-0.4l1.5-0.4l1.5-0.5l10.2-5.2l9.7-8l9.2-10.3
		l8.7-12.1l8.1-13.4l7.5-14.2l6.8-14.6l6.1-14.5l5.3-13.9l4.5-12.8l3.7-11.2l2.8-9.1v0.7l-0.1,0.7v0.7l-0.1,0.7l-0.1,0.7l-0.2,1.3
		l-0.1,0.7l-0.1,0.7v0.7l-0.1,0.7v0.7l-0.2,2.6l-0.2,2.5l-0.2,2.5l-0.2,2.4l-0.1,2.3l-0.1,2.3l-0.1,2.2l-0.1,2.2l-0.1,2.2l-0.1,2.2
		v2.2v2.1v4.1l0.1,4.2l0.2,4.2l0.4,4.3l0.4,4.5l0.6,4.6l0.7,4.8l0.8,5.1l1,5.4l1.1,5.7l1.3,6l1.4,6.4l0.8,2.8l1,2.8l1.3,2.7l1.4,2.7
		l1.6,2.6l1.8,2.6l2,2.5l2.1,2.4l2.3,2.3l2.4,2.2l2.5,2.1l2.6,2l3.6,2.6l3.9,2.5l4.2,2.4l4.4,2.2l4.5,2l4.6,1.8l4.7,1.6l4.6,1.4
		l4.6,1.1l4.5,0.8l4.3,0.5l4.1,0.2l10-0.7l9.7-2.1l9.3-3.3l8.8-4.4l8.3-5.3l7.7-6.1l7.1-6.8l6.4-7.4l5.7-7.8l3.6-5.9l4.7,6.1
		l7.8,8.4l8.3,7.5l8.6,6.6l8.9,5.7l9.1,4.8l9.2,3.9l9.3,3l9.2,2.1l9.1,1.3l8.9,0.4l5.9-0.1l5.9-0.3l5.9-0.5l5.8-0.8l5.7-1l5.6-1.2
		l5.4-1.5l5.2-1.8l4.9-2l4.7-2.4l4.3-2.7l4-3l8.2-7.5l7.4-8l6.7-8.5l6-9l5.4-9.5l4.8-10l4.2-10.4l3.7-10.8l3.2-11.3l2.8-11.7
		l2.4-12.1l2-12.5l8.9-1.7l8.7-2.1l8.3-2.5l8-2.9l7.6-3.4l7.2-3.8l6.7-4.2l6.2-4.6l5.7-5.1l3.5-3.7l-0.7,1.9l-2.3,6.3l-2.3,6.1
		l-2.4,6l-2.4,5.8l-2.4,5.7l-2.4,5.5l-2.3,5.4l-2.3,5.2l-0.5-0.5l-0.5-0.5l-0.4-0.5l-0.4-0.5l-0.4-0.5l-0.4-0.5l-0.3-0.5l-0.3-0.4
		l-0.3-0.4l-0.2-0.4l-0.2-0.4l-0.2-0.3l-4.4,1.9l-3.9,2.3l-3.4,2.7l-2.9,3l-2.5,3.3l-2.1,3.5l-1.7,3.8l-1.4,4l-1,4.1l-0.7,4.3
		l-0.4,4.4l-0.1,4.4l0.1,2.6l0.1,2.6l0.2,2.6l0.3,2.6l0.4,2.6l0.5,2.6l0.6,2.5l0.7,2.5l0.8,2.5l0.9,2.4l1,2.4l1.1,2.3l7.7,12.7
		l9.5,11.2l11,9.8l12.3,8.4l13.3,7.1l14.1,5.9l14.7,4.8l15,3.7l15.1,2.8l15,1.9l14.5,1.1l13.9,0.4l8.6-0.3l9.2-0.9l9.7-1.5l10.1-2.1
		l10.3-2.7l10.4-3.3l10.5-3.8l10.3-4.4l10.1-4.9l9.7-5.4l9.2-5.9l8.6-6.4l4.2-3.5l4-3.7l3.8-3.8l3.6-4l0.3-0.4l3.7,6.8l4.8,7.3
		l5.5,6.7l6.1,6.1l6.9,5.4l7.7,4.6l8.5,3.7l9.4,2.8l10.4,1.7l11.3,0.6l10-0.5l9.8-1.3l9.5-2.2l9.2-3.1l8.9-4l8.4-4.9l7.9-5.9
		l7.3-6.8l6.7-7.7l6.1-8.7l1.9-3.4l-0.9-1.6l-2.3-4.4l2.3,4.4l0.9,1.6l3.4,5.6l4.1,6l4.3,5.6l4.6,5.2l4.7,4.7l4.9,4.2l5,3.7l5.2,3.2
		l5.3,2.7l5.4,2.1l5.5,1.5l5.5,0.9l5.6,0.3h1.3l1.3-0.1l1.4-0.1l1.4-0.1l1.4-0.1l1.4-0.2l1.5-0.2l1.5-0.3l1.5-0.3l1.5-0.4l1.5-0.4
		l1.5-0.4l10.2-5.2l9.7-8l9.2-10.3l8.7-12.1l8.1-13.4l7.5-14.3l6.8-14.6l6.1-14.5l5.3-13.9l4.5-12.8l3.7-11.2l2.8-9.1v0.7v0.6
		l-0.1,0.7l-0.1,0.7l-0.1,0.7l-0.1,0.6l-0.1,0.6l-0.1,0.7l-0.1,0.7l-0.1,0.6v0.7v0.6l-0.1,2.6l-0.2,2.5l-0.1,2.5l-0.2,2.4l-0.1,2.3
		l-0.1,2.3l-0.1,2.2l-0.1,2.2l-0.1,2.2l-0.1,2.2v2.2v2.1v4.1l0.1,4.2l0.2,4.2l0.3,4.3l0.4,4.5l0.6,4.6l0.7,4.8l0.8,5.1l1,5.4
		l1.1,5.7l1.2,6l1.4,6.4l0.8,2.8l1,2.7l1.2,2.7l1.4,2.7l1.7,2.6l1.8,2.6l2,2.5l2.1,2.4l2.3,2.3l2.4,2.2l2.5,2.1l2.6,2l3.6,2.6
		l3.9,2.5l4.2,2.4l4.4,2.2l4.5,2l4.6,1.8l4.7,1.6l4.7,1.4l4.6,1.1l4.5,0.8l4.3,0.5l4.1,0.2l10.1-0.7l9.6-2.1l9.3-3.3l8.8-4.4
		l8.3-5.3l7.7-6.2l7-6.8l6.4-7.4l5.7-7.8l3.3-5.4l0.6,1l3.5,5.5l3.6,5.2l3.8,4.8l3.9,4.5l4,4.1l4.1,3.8l3.5,2.8l3.5,2.6l3.5,2.3
		l3.6,2.1l3.6,1.8l3.6,1.6l3.6,1.3l3.6,1.1l3.6,0.9l3.6,0.6l3.6,0.4l3.6,0.1l4.7-0.2l4.5-0.7l4.3-1.1l4-1.4l3.9-1.8l3.7-2.1l3.5-2.3
		l3.3-2.6l3.2-2.8l3-3l2.9-3.1l2.7-3.2l6-8.1l5.8-9l5.6-9.8l5.5-10.6l5.3-11.2l5.1-11.7l5-12.1l4.8-12.4l4.6-12.7l4.5-12.8l4.3-12.7
		l4.2-12.6l-0.1,3.7l-0.4,4.8l-0.6,5.7l-0.7,6.5l-0.8,7.2l-0.8,7.7l-0.8,8.1l-0.8,8.4l-0.7,8.5l-0.5,8.5l-0.4,8.4l-0.1,8.1v8.3
		l-0.1,7.7l-0.1,7.2l-0.1,6.7l-0.2,6.2l-0.2,5.7l-0.2,5.2l-0.2,4.8l-0.1,4.4l-0.1,4l-0.1,3.7v3.3l-0.6,0.4l-1.9,1l-2.9,1.5l-3.8,2
		l-4.5,2.3l-5.1,2.6l-5.5,2.9l-5.8,3l-5.9,3l-5.9,3l-5.7,2.8l-5.3,2.6l-7.6,3.7l-7.7,3.8l-7.7,3.9l-7.6,4l-7.4,4.1l-7.1,4.3
		l-6.8,4.4l-6.4,4.6l-5.8,4.7l-5.3,4.9l-4.6,5.1l-3.9,5.3l-1,1.8l-0.9,1.8l-0.8,1.8l-0.8,1.8l-0.7,1.8l-0.6,1.8l-0.5,1.8l-0.4,1.8
		l-0.4,1.8l-0.3,1.8l-0.1,1.8l-0.1,1.8l1.1,8.4l3,7.4l4.6,6.3l6,5.3l7.1,4.4l7.9,3.6l8.4,2.8l8.6,2.1l8.5,1.5l8.1,1l7.5,0.6l6.5,0.1
		l8.8-0.3l8.9-0.8l8.9-1.3l8.8-1.8l8.7-2.2l8.5-2.8l8.2-3.3l7.8-3.8l7.4-4.4l6.9-4.9l6.3-5.4l5.6-6l5.2-6.7l4.8-7.2l4.3-7.6l3.9-8
		l3.5-8.4l3.2-8.6l2.8-8.9l2.5-9.1l2.1-9.2l1.8-9.3l1.5-9.3l1.3-9.3l8.3-4.5l8.1-4.6l8-4.7l7.7-4.8l7.4-4.9l7.1-5l6.8-5.1l6.3-5.2
		l5.9-5.3h0.1l1,3.9l1.9,5.5l2,4.4l2.6,4.4l3.1,4.3l3.6,4.1l4,3.8l4.4,3.5l4.7,3.1l4.9,2.7l5.1,2.2l5.2,1.7l5.3,1l5.3,0.3h1.3
		l1.3-0.1l1.3-0.1l1.3-0.1l1.3-0.2l1.3-0.2l1.3-0.3l1.3-0.3l1.2-0.4l1.2-0.5l1.2-0.5l1.2-0.6l-0.5-6.4l-0.4-6.3l-0.3-6.2l-0.3-6.2
		l-0.3-6.2l-0.3-6.2l-0.2-6.2l-0.2-6.3l-0.1-6.3l-0.1-6.4l-0.1-6.5v-6.7l0.2-4.5l0.4-4.8l0.6-5.1l0.9-5.3l1.1-5.5l1.3-5.7l1.5-5.8
		l1.7-5.9l1.8-6l2-6l2.1-6l2.3-6l1.8-4.8l1.9-4.7l2-4.7l2-4.6l2-4.5l2-4.4l2.1-4.3l2.1-4.2l2.1-4l2.1-3.9l2.1-3.7l2.1-3.6l4.8,6.6
		l5.3,6.2l5.8,5.7l6.4,5.2l6.8,4.7l7.2,4.2l7.6,3.6l8,3l8.3,2.4l8.6,1.7l8.9,1.1l9.1,0.3l9.3-0.4l3.3-0.5v3.5l0.6,10.5l1,10.4
		l1.4,10.2l1.8,10.1l2.1,9.8l2.5,9.5l2.9,9.3l3.2,8.9l3.5,8.5l3.8,8.1l4.1,7.7l4.3,7.2l4.1,6l4.3,5.6l4.5,5.2l4.7,4.7l4.9,4.2l5,3.7
		l5.2,3.2l5.3,2.7l5.4,2.1l5.5,1.5l5.5,0.9l5.6,0.3h1.3l1.4-0.1l1.4-0.1l1.4-0.1l1.4-0.1l1.4-0.2l1.5-0.2l1.5-0.3l1.5-0.3l1.5-0.4
		l1.5-0.4l1.5-0.4l10.2-5.2l9.7-8l9.2-10.3l8.7-12.1l8.1-13.4l7.5-14.3l6.8-14.6l6.1-14.5l5.3-13.9l4.5-12.8l3.7-11.2l2.7-9.1v0.7
		v0.6l-0.1,0.7l-0.1,0.7l-0.1,0.7l-0.1,0.6l-0.1,0.6l-0.1,0.7l-0.1,0.7l-0.1,0.6l-0.1,0.7v0.6l-0.2,2.6l-0.1,2.5l-0.2,2.5l-0.1,2.4
		l-0.1,2.3l-0.2,2.3l-0.1,2.2l-0.1,2.2l-0.1,2.2l-0.1,2.2v2.2v2.1l0.1,4.1l0.1,4.2l0.2,4.2l0.3,4.3l0.5,4.5l0.5,4.6l0.7,4.8l0.8,5.1
		l0.9,5.4l1.1,5.7l1.3,6l1.4,6.4l0.8,2.8l1,2.7l1.2,2.7l1.5,2.7l1.6,2.6l1.8,2.6l2,2.5l2.1,2.4l2.2,2.3l2.4,2.2l2.5,2.1l2.6,2
		l3.6,2.6l3.9,2.5l4.2,2.4l4.4,2.2l4.5,2l4.6,1.8l4.7,1.6l4.7,1.4l4.6,1.1l4.5,0.8l4.3,0.5l4.1,0.2l10-0.7l9.7-2.1l9.2-3.3l8.8-4.4
		l8.3-5.3l7.7-6.2l7.1-6.8l0.1-0.1l0.4,0.5l5.3,4.6l6,4.1l6.4,3.6l6.6,3l6.7,2.5l6.7,1.8l6.5,1.1l6,0.4h1.1l1.1-0.1l1-0.1l1-0.1
		l1-0.1l0.9-0.2l0.9-0.2l0.9-0.2l0.9-0.2l0.8-0.3l0.8-0.3l0.8-0.3l0.3-7.3l0.8-8.6l1.3-9.8l1.8-10.8l2.2-11.7l2.6-12.4l2.9-13.1
		l3.3-13.6l3.6-14l3.8-14.2l4-14.3l4.2-14.2l4.9-15.5l5-15.1l5-14.5l5.1-13.8l5.1-12.8l5-11.7l4.9-10.4l4.7-8.9l4.5-7.2l4.3-5.4
		l4-3.4l3.6-1.1l3.2,0.7l2.8,2l2.4,3.3l2,4.4l1.7,5.4l1.3,6.4l1.1,7.2l0.8,7.9l0.5,8.6l0.4,9.1l0.2,9.6l0.1,9.9v3.7v3.7v7.5v3.8
		l-0.1,3.8l-0.1,3.8v3.8l-0.1,3.8l-0.1,3.7l-0.1,3.7l-0.1,3.7l-0.4,9.4l-0.5,9.1l-0.6,8.9l-0.7,8.6l-0.6,8.3l-0.7,7.9l-0.6,7.6
		l-0.6,7.3l-0.5,7l-0.4,6.6l-0.3,6.3l-0.1,6v1.9l0.1,1.9l0.1,1.8l0.1,1.8l0.1,1.8l0.2,1.7l0.2,1.7l0.2,1.6l0.2,1.6l0.3,1.5l0.3,1.5
		l0.3,1.5l1.8,5.3l2.4,4.8l3,4.3l3.5,3.8l3.9,3.3l4.3,2.8l4.6,2.3l4.9,1.9l5.1,1.4l5.2,1l5.3,0.6l5.3,0.2h2l1.9-0.1l1.9-0.2l1.9-0.2
		l1.8-0.2l1.8-0.3l1.8-0.3l1.8-0.3l1.7-0.4l1.7-0.4l1.7-0.4l1.7-0.5v-3.9l0.3-6.5l0.9-8l1.5-9.3l2-10.5l2.4-11.4l2.9-12.3l3.2-13.1
		l3.6-13.6l3.9-14l4.1-14.3l4.4-14.4l4.5-14.4l3.2-9.8l3.2-9.7l3.3-9.5l3.3-9.3l3.4-8.9l3.4-8.6l3.4-8.3l3.4-7.9l3.3-7.4l3.3-6.9
		l3.3-6.3l3.2-5.8l1.7-2.9l1.6-2.6l1.6-2.4l1.6-2.2l1.6-1.9l1.6-1.7l1.5-1.5l1.4-1.2l1.4-0.9l1.4-0.7l1.3-0.4l1.2-0.1l1.7,0.2
		l1.6,0.5l1.5,0.8l1.4,1l1.3,1.3l1.1,1.5l1.1,1.7l1,1.9l0.9,2.1l0.8,2.2l0.8,2.3l0.7,2.4l0.8,3.2l0.7,3.2l0.5,3.2l0.4,3.2l0.3,3.1
		l0.2,3l0.2,2.8l0.1,2.7l0.1,2.4l0.1,2.2v1.9v1.5l-0.1,8.8l-0.2,8.7l-0.3,8.6l-0.4,8.5l-0.5,8.4l-0.5,8.3l-0.5,8.3l-0.5,8.2
		l-0.4,8.2l-0.3,8.1l-0.2,8.1l-0.1,8.1v5.4l0.1,5.4l0.2,5.3l0.3,5.3l0.4,5.2l0.5,5.2l0.6,5.2l0.8,5.1l0.9,5.1l1,5.1l1.1,5.1l1.3,5.1
		l3,9.2l3.9,8.6l4.8,8l5.5,7.4l6.2,6.7l6.7,6l7.2,5.2l7.5,4.3l7.8,3.5l7.9,2.5l8,1.5l7.9,0.5h1.3l1.3-0.1l1.3-0.1l1.3-0.1l1.2-0.1
		l1.2-0.1l1.2-0.2l1.2-0.2l1.1-0.2l1.2-0.3l1.2-0.3l1.2-0.3l6.4-2.3l6.7-3.3l6.9-4.1l6.9-4.9l6.8-5.5l6.6-6.2l6.3-6.7l5.8-7.1
		l5.2-7.5l4.6-7.7l3.7-7.9l2.8-8.1l0.3-1.3l0.3-1.3l0.3-1.3l0.2-1.3l0.2-1.2l0.2-1.2l0.1-1.2l0.1-1.2l0.1-1.1l0.1-1.2l0.1-1.1v-1.1
		L3193.1,440.5z M682.3,299.7l-3.5,13.7l-3.8,13.8l-4.1,13.7l-4.4,13.6l-4.6,13.4l-4.8,13l-4.9,12.5l-5.1,11.9l-5.2,11.3l-5.2,10.5
		l-5.3,9.6l-3,4.9l-3,4.6l-2.9,4.3l-2.9,3.9l-2.9,3.5l-2.9,3.1l-2.8,2.7l-2.8,2.3l-2.7,1.8l-2.7,1.3l-2.6,0.8l-2.5,0.3l-2.5-0.7
		l-2.4-1.9l-2.3-3l-2.2-4l-2-4.9l-1.9-5.7l-1.7-6.4l-1.4-7l-1.2-7.5l-0.9-7.9l-0.6-8.2l-0.2-8.4l0.3-13.9l1-14.6l1.6-15l2.2-15.2
		l2.8-15.2l3.4-14.8l3.9-14.3l4.5-13.6l5-12.5l5.5-11.3l6-9.8l6.5-8.1l2-1.9l2-1.7l2-1.5l2-1.3l2-1.2l2-1l1.9-0.8l1.9-0.7l1.9-0.5
		l1.9-0.4l1.9-0.2l1.8-0.1l5.3,0.6l5.1,1.7l4.8,2.7l4.5,3.5l4.2,4.2l3.8,4.8l3.4,5.2l3,5.5l2.5,5.7l2,5.8l1.4,5.6l0.8,5.4
		L682.3,299.7z M982.5,400.6l-1.7,8.3l-1.8,7.8l-1.8,7.3l-1.8,6.8l-1.9,6.3l-1.9,5.8l-1.9,5.4l-1.9,5l-1.9,4.5l-1.9,4.1l-1.8,3.7
		l-2.5,4.4l-2.5,3.7l-2.4,3.1l-2.4,2.5l-2.3,2l-2.1,1.5l-2,1.1l-1.8,0.8l-1.5,0.5l-1.3,0.3l-1,0.1h-0.7l-3.2-0.3l-3.2-0.9L930,483
		l-3.3-1.9l-3.3-2.4l-3.3-2.9l-3.3-3.4l-3.2-3.9l-3.2-4.3l-3.1-4.7l-3-5.2l-2.9-5.6l-2.6-5.8l-2.5-6.1l-2.3-6.5l-2.2-6.7l-2-7
		l-1.8-7.3l-1.5-7.6l-1.3-7.8l-1-8.1l-0.8-8.3l-0.5-8.5l-0.2-8.7v-5.5v-1.9V351v-1.9l0.1-1.9l0.1-1.8l0.1-1.8l0.1-1.8l0.1-1.7
		l0.2-1.7l2.5,3.1l2.6,3l2.8,3l2.9,2.9l3,2.8l3.1,2.8l3.2,2.7l3.4,2.6l3.5,2.5l3.6,2.4l3.8,2.3l3.9,2.2l4.1,2.2l4.6,2.3l5.1,2.3
		l5.4,2.3l5.7,2.2l5.8,2.1l5.8,1.9l5.7,1.7l5.5,1.5l5.2,1.2l4.8,0.9l4.3,0.5L982.5,400.6z M992.1,316.2l-0.1,2.9l-0.1,2.8l-0.2,2.8
		l-0.2,2.7l-0.2,2.6l-0.2,2.5l-0.2,2.4l-0.2,2.3l-0.2,2.2l-0.2,2.1l-0.2,2l-11.6-3l-10.9-3.8l-10.1-4.6l-9.3-5.2l-8.4-5.8l-7.5-6.3
		l-6.5-6.7l-5.4-7.1l-4.3-7.4l-3.2-7.6l-2-7.8l-0.7-7.9l0.4-6l1.1-5.3l1.8-4.7l2.3-4.2l2.8-3.6l3.2-3.1l3.6-2.5l3.9-2.1l4-1.6
		l4.1-1.1l4.2-0.7l4.2-0.2l3,0.1l3,0.4l3,0.5l3,0.8l2.9,1l2.8,1.2l2.8,1.4l2.7,1.6l2.5,1.9l2.4,2.1l2.3,2.3l2.1,2.5l2.5,3.9l2.2,4.3
		l1.9,4.6l1.7,4.9l1.4,5.2l1.2,5.4l1,5.6l0.8,5.6l0.6,5.7l0.4,5.7l0.2,5.6v5.5L992.1,316.2z M1233.4,460.3l-0.3,3.8l-0.4,3.6
		l-0.7,3.5l-0.9,3.3l-1.1,3.1l-1.3,2.9l-1.6,2.7l-1.8,2.4l-2.1,2.2l-2.4,1.9l-2.7,1.6l-1,0.5l-1,0.4l-1,0.4l-1,0.3l-1,0.3l-1,0.2
		l-1,0.2l-1.1,0.2l-1.1,0.1l-1.1,0.1l-1.1,0.1h-1.1l-7.4-0.6l-7.8-1.6l-8.1-2.5l-8.1-3.2l-8-3.8l-7.6-4.2l-7.1-4.5l-6.4-4.7
		l-5.5-4.7l-4.4-4.5l-3.1-4.2l-1.6-3.7l1.7-5l2.1-5.5l2.4-5.9l2.7-6.2l2.9-6.6l3-6.8l3.1-7.1l3.2-7.3l3.1-7.4l3.1-7.5l2.9-7.6
		l2.8-7.6l1.8-5.3l1.8-5.3l1.8-5.3l3.4-10.7l1.7-5.4l1.6-5.3l1.6-5.4l1.6-5.3l1.6-5.3l1.5-5.3l1.5-5.3l2.8,5.1l2.7,5.2l2.7,5.2
		l2.6,5.2l2.6,5.2l2.5,5.3l2.4,5.3l2.4,5.3l2.3,5.3l2.3,5.4l2.2,5.4l2.2,5.4l2.1,5.3l2.2,5.9l2.3,6.5l2.3,7l2.2,7.3l2.1,7.6l2,7.8
		l1.8,7.8l1.5,7.8l1.1,7.8l0.7,7.5l0.3,7.3L1233.4,460.3z M1519.7,454.4l0.8,2.2l1.8,4.5l-1.8-4.5L1519.7,454.4z M1693.2,299.7
		l-3.5,13.7l-3.8,13.8l-4.1,13.7l-4.4,13.6l-4.6,13.4l-4.8,13l-5,12.5l-5.1,11.9l-5.2,11.3l-5.3,10.5l-5.3,9.5l-3,5l-3,4.6l-2.9,4.3
		l-2.9,3.9l-2.9,3.5l-2.9,3.1l-2.8,2.7l-2.8,2.3l-2.7,1.8l-2.7,1.3l-2.6,0.8l-2.5,0.3l-2.5-0.6l-2.4-1.8l-2.3-3l-2.2-4l-2.1-4.9
		l-1.9-5.7l-1.7-6.4l-1.4-7l-1.2-7.5l-0.9-7.9l-0.5-8.2l-0.2-8.3l0.3-14l1-14.6l1.6-15l2.2-15.2l2.8-15.2l3.4-14.9l4-14.3l4.5-13.6
		l5-12.5l5.5-11.3l6-9.8l6.5-8.1l2-1.9l2-1.7l2-1.5l2-1.3l2-1.1l1.9-1l1.9-0.8l1.9-0.7l1.9-0.5l1.9-0.4l1.8-0.2l1.8-0.1l5.3,0.6
		l5.1,1.7l4.8,2.7l4.5,3.5l4.2,4.2l3.8,4.8l3.4,5.2l3,5.5l2.5,5.7l2,5.8l1.4,5.6l0.8,5.5L1693.2,299.7z M2012.9,295.8l-2.7,9.6
		l-2.7,9.7l-2.8,9.6l-2.9,9.6l-3,9.6l-3,9.5l-3.2,9.4l-3.3,9.2l-3.4,9l-3.6,8.8l-3.7,8.6l-4.4,9.5l-4.3,9.2l-4.2,8.8l-4.1,8.3
		l-4,7.8l-3.9,7l-3.8,6.3l-3.7,5.3l-3.6,4.4l-3.5,3.2l-3.3,2l-3.2,0.7l-3.2-0.4l-3.1-1.4l-2.9-2.3l-2.7-3.2l-2.5-4.2l-2.2-5.1
		l-1.9-6l-1.6-7l-2.3-16.9l-0.6-9.9l-0.2-10.9v-3.3v-3.4l0.1-3.5l0.1-3.6l0.1-3.7l0.2-3.8l0.2-3.8l0.3-3.9l0.3-4l0.4-4.1l0.4-4.2
		l0.4-4.2l2-13.8l2.7-14.2l3.3-14.2l3.9-14l4.5-13.5l5-12.6l5.4-11.5l5.8-10.1l6.3-8.4l6.6-6.3l6.9-4l7.2-1.4l4.9,0.5l4.9,1.4
		l4.8,2.2l4.7,3l4.5,3.7l4.2,4.4l3.9,5l3.5,5.5l3,6l2.5,6.4l2,6.8l1.3,7.1L2012.9,295.8z M2010.1,567.3l-0.9,3.4l-0.9,3.3l-1,3.3
		l-1,3.2l-1,3.2l-1.2,3.2l-1.2,3.1l-1.3,3l-1.4,3.1l-1.5,3l-1.6,3l-2.1,3.1l-2.4,2.8l-2.6,2.5l-2.8,2.2l-3,1.9l-3.1,1.6l-3.2,1.3
		l-3.3,1.1l-3.3,0.8l-3.3,0.6l-3.3,0.3l-3.2,0.1l-3.1-0.1l-3-0.3l-2.8-0.4l-2.7-0.6l-2.5-0.8l-2.2-1l-2-1.1l-1.7-1.3l-1.4-1.4
		l-1-1.5l-0.6-1.6l-0.2-1.8l0.1-1.3l0.4-1.4l0.7-1.3l0.9-1.3l1.1-1.3l1.2-1.3l1.3-1.2l1.3-1.1l1.3-1.1l1.3-1l1.2-0.9l1.1-0.7
		l3.2-2.2l4.2-2.6l5.1-2.9l5.7-3l6.1-3.2l6.3-3.2l6.2-3.1l6-2.9l5.6-2.6l5-2.3l4.1-1.8l3.1-1.3L2010.1,567.3z M2545.2,299.7
		l-3.5,13.7l-3.8,13.8l-4.1,13.7l-4.4,13.6l-4.6,13.4l-4.8,13l-4.9,12.5l-5.1,11.9l-5.2,11.3l-5.2,10.5l-5.3,9.5l-3,5l-3,4.6l-3,4.3
		l-2.9,3.9l-2.9,3.5l-2.9,3.1l-2.8,2.7l-2.8,2.3l-2.7,1.8l-2.6,1.3l-2.6,0.8l-2.5,0.3l-2.5-0.6l-2.4-1.8l-2.3-3l-2.2-4l-2-4.9
		l-1.9-5.7l-1.7-6.4l-1.4-7l-1.2-7.5l-0.9-7.9l-0.6-8.2l-0.2-8.3l0.4-14l1-14.6l1.6-15l2.2-15.2l2.8-15.2l3.4-14.9l3.9-14.3
		l4.5-13.6l5-12.5l5.5-11.3l6-9.8l6.5-8.1l2-1.9l2-1.7l2-1.5l2-1.3l2-1.1l2-1l1.9-0.8l1.9-0.7l1.9-0.5l1.9-0.4l1.8-0.2l1.8-0.1
		l5.3,0.6l5.1,1.7l4.8,2.7l4.5,3.5l4.2,4.2l3.8,4.8l3.4,5.2l3,5.5l2.5,5.7l2,5.8l1.4,5.6l0.8,5.5L2545.2,299.7z"/>
	<path class="st0" d="M472.4,274.8L469,254l-4.8-20.7l-6.1-20.4l-7.5-20l-9-19.6l-10.4-19L419.4,136l-13.2-17.5l-14.6-16.6
		l-16.1-15.5l-13-10.8L348.9,66l-14-8.4l-14.4-7.3L305.7,44l-15-5.3l-15.2-4.3l-15.3-3.5l-15.3-2.6l-15.3-1.8l-15.2-1l-15-0.4
		l-15,0.4l-14.7,1l-14.2,1.6l-13.7,2.2l-13,2.8l-12.3,3.3L105,40.1l-10.5,4.1L85,48.7l-8.4,4.8l-7.1,5.1l-5.8,5.3L61,66.7l-2.4,2.8
		l-2.1,2.8l-1.8,2.8l-1.6,2.8l-1.3,2.8l-1.1,2.7l-0.9,2.8l-0.6,2.7l-0.5,2.7l-0.3,2.7L48.3,97l0.3,4.4l0.9,4.3l1.4,4.2l1.9,4
		l2.3,3.8l2.7,3.5l3,3.2l3.3,2.9l3.5,2.5l3.6,2.1l3.7,1.6l3.8,1.1l2.6-2.2l3.2-2.3l3.8-2.4l4.4-2.5l4.9-2.6l5.4-2.6l5.8-2.6l6.3-2.6
		l6.7-2.6l7.1-2.5l7.4-2.4l7.8-2.4l-1,25.1l-1,25.1l-0.1,1.3l-0.9,18.8l-1,19.6l-1,20.3l-1,20.8l-1,21.1l-1,21.3l-0.9,21.3
		l-0.8,21.1l-0.7,20.8l-0.5,20.4l-0.4,19.7l-0.1,18.9v30.3l-2.3,3.8l-2.1,3.9l-2,3.9l-1.9,4l-1.7,4.1l-1.5,4.2l-1.3,4.3l-1.1,4.3
		l-0.9,4.4l-0.6,4.5l-0.4,4.6l-0.1,4.7l0.1,4.3l0.3,4.2l0.5,4.1l0.7,4.1l0.9,4l1.1,3.9l1.3,3.8l1.5,3.7l1.6,3.7l1.8,3.6l1.9,3.5
		l2.1,3.3l5.3,7.3l6,6.8l6.7,6.3l7.3,5.7l7.9,5.1l8.4,4.5l8.9,3.9l9.3,3.2l9.7,2.5l10,1.9l10.2,1.1l10.5,0.4l14.3-0.5l14.9-1.6
		l15.3-2.6l15.6-3.7l15.7-4.7l15.7-5.7l15.5-6.8L353,543l14.7-8.9l14.1-9.9l13.3-11l12.4-12l10.9-12.4l9.9-13.1l8.9-13.8l8-14.4
		l7-14.9l6-15.5l5.1-15.9l4.1-16.3l3.2-16.7l2.3-17l1.4-17.2l0.5-17.4l-0.7-20.8L472.4,274.8z M404.9,276.9l-0.8,13.1l-1.4,13.1
		l-1.9,13.1l-2.4,13l-2.8,12.8l-3.3,12.6l-3.7,12.4l-4.1,12.1l-4.4,11.7l-4.8,11.3l-5.1,10.8l-6.4,12.2l-6.9,11.5l-7.3,10.8
		l-7.7,10.2l-8,9.5l-8.2,8.8l-8.4,8.1l-8.5,7.4l-8.5,6.7l-8.5,6l-8.4,5.2l-8.2,4.5l-2.4,1.2l-2.7,1.2l-2.8,1.3l-3,1.3l-3.1,1.2
		l-3.3,1.2l-3.3,1.1l-3.4,0.9l-3.4,0.8l-3.4,0.6L241,525l-3.3,0.1l-2.3-0.1l-2.2-0.2l-2.1-0.4l-2.1-0.5l-2-0.7l-1.9-0.9l-1.8-1.1
		l-1.6-1.3l-1.5-1.5l-1.4-1.7l-1.2-1.9l-1.1-2.2l-0.6-1.5l-0.5-1.6l-0.5-1.7l-0.4-1.7l-0.3-1.8l-0.3-1.9l-0.2-1.9l-0.2-2l-0.1-2
		l-0.1-2.1l-0.1-2.1v-2.1l0.1-3.8l0.2-3.9l0.3-3.9l0.4-3.9l0.5-3.8l0.6-3.7l0.7-3.6l0.7-3.4l0.8-3.2l0.8-2.9l0.8-2.6l0.8-2.3
		l3.1-7.6l3.7-7.5l4.3-7.4l4.9-7.2l5.5-7l6.2-6.7l6.9-6.2l7.7-5.8l8.5-5.3l9.3-4.6l10.1-3.9l11-3.2l-0.2-3.2l-0.5-3l-0.8-2.8
		l-1.1-2.6l-1.4-2.3l-1.7-2.1l-2-1.9l-2.3-1.6l-2.5-1.3l-2.8-1.1l-3.1-0.8l-3.3-0.5l-1-0.2l-1-0.1l-1-0.1l-1-0.1l-1-0.1l-1-0.1
		l-1-0.1h-1h-2h-1h-1l-4.3,0.1l-4.2,0.2l-4.2,0.4l-4.2,0.5l-4.1,0.6l-4.1,0.7l-4.1,0.8l-4,1l-4,1.1l-3.9,1.2l-3.9,1.3l-3.8,1.4
		l0.7-10.5l0.6-11.2l0.6-11.9l0.5-12.4l0.5-12.9l0.4-13.1l0.4-13.3l0.3-13.4l0.3-13.4l0.2-13.2l0.1-13l0.1-12.6l-0.1-12.2l-0.1-11.9
		l-0.3-11.5l-0.4-11.1l-0.5-10.6l-0.6-10l-0.8-9.3l-0.9-8.6l-1.1-7.8l-1.3-6.9l-1.5-6l-1.7-5l-3.3-7.9l2.8-0.3l2.8-0.3l2.8-0.3
		l2.8-0.3l2.8-0.2l2.8-0.2l2.8-0.2l2.8-0.1l2.8-0.1l2.8-0.1h2.8h2.8l10.5,0.2l10.5,0.7l10.4,1.1l10.2,1.6l10,2.1l9.8,2.6l9.4,3.2
		l9.1,3.8l8.8,4.4l8.3,5l7.8,5.7l7.3,6.4l8.3,8.6l7.4,9.3l6.6,9.9l5.8,10.5l5,11l4.3,11.5l3.6,11.9l2.9,12.3l2.2,12.6l1.5,12.8
		l0.9,13l0.3,13.1L404.9,276.9z"/>
</g>
</svg>
